HIERARCHY
ROOT Hips
{
	OFFSET -395.402618 89.000679 -566.678650
	CHANNELS 6 Xposition Yposition Zposition Zrotation Yrotation Xrotation 
	JOINT Spine
	{
		OFFSET -0.000000 8.814246 -2.080107
		CHANNELS 3 Zrotation Yrotation Xrotation
		JOINT Spine1
		{
			OFFSET 0.000000 8.844141 0.000000
			CHANNELS 3 Zrotation Yrotation Xrotation
			JOINT Spine2
			{
				OFFSET 0.000000 11.682268 -0.000000
				CHANNELS 3 Zrotation Yrotation Xrotation
				JOINT Spine3
				{
					OFFSET 0.000000 11.746700 0.000000
					CHANNELS 3 Zrotation Yrotation Xrotation
					JOINT Neck
					{
						OFFSET 0.000000 17.658264 -0.000000
						CHANNELS 3 Zrotation Yrotation Xrotation
						JOINT Neck1
						{
							OFFSET 0.000000 5.101515 -0.000000
							CHANNELS 3 Zrotation Yrotation Xrotation
							JOINT Head
							{
								OFFSET -0.000000 5.101515 0.000000
								CHANNELS 3 Zrotation Yrotation Xrotation
								JOINT HeadEnd
								{
									OFFSET 0.000000 11.655085 -0.000000
									CHANNELS 3 Zrotation Yrotation Xrotation
									End Site
									{
										OFFSET 0.000000 0.000000 0.000000
									}
								}
							}
						}
					}
					JOINT RightShoulder
					{
						OFFSET -2.625389 11.175210 -0.000000
						CHANNELS 3 Zrotation Yrotation Xrotation
						JOINT RightArm
						{
							OFFSET -0.000000 10.434715 0.000000
							CHANNELS 3 Zrotation Yrotation Xrotation
							JOINT RightForeArm
							{
								OFFSET -0.000000 29.628420 -0.000000
								CHANNELS 3 Zrotation Yrotation Xrotation
								JOINT RightHand
								{
									OFFSET -0.000000 22.857611 0.000000
									CHANNELS 3 Zrotation Yrotation Xrotation
									JOINT RightHandThumb1
									{
										OFFSET -2.867323 3.959563 2.944291
										CHANNELS 3 Zrotation Yrotation Xrotation
										JOINT RightHandThumb2
										{
											OFFSET -0.000000 3.350399 0.000000
											CHANNELS 3 Zrotation Yrotation Xrotation
											JOINT RightHandThumb3
											{
												OFFSET -0.000000 3.756509 0.000000
												CHANNELS 3 Zrotation Yrotation Xrotation
												JOINT RightHandThumb4
												{
													OFFSET 0.000000 3.147345 0.000000
													CHANNELS 3 Zrotation Yrotation Xrotation
													End Site
													{
														OFFSET 0.000000 0.000000 0.000000
													}
												}
											}
										}
									}
									JOINT RightHandIndex1
									{
										OFFSET -0.086752 10.030893 2.345280
										CHANNELS 3 Zrotation Yrotation Xrotation
										JOINT RightHandIndex2
										{
											OFFSET -0.000000 4.061090 0.000000
											CHANNELS 3 Zrotation Yrotation Xrotation
											JOINT RightHandIndex3
											{
												OFFSET 0.000000 3.248873 -0.000000
												CHANNELS 3 Zrotation Yrotation Xrotation
												JOINT RightHandIndex4
												{
													OFFSET 0.000000 2.639709 -0.000000
													CHANNELS 3 Zrotation Yrotation Xrotation
													End Site
													{
														OFFSET 0.000000 0.000000 0.000000
													}
												}
											}
										}
									}
									JOINT RightHandMiddle1
									{
										OFFSET 0.104102 9.502952 0.006768
										CHANNELS 3 Zrotation Yrotation Xrotation
										JOINT RightHandMiddle2
										{
											OFFSET 0.000000 4.568727 -0.000000
											CHANNELS 3 Zrotation Yrotation Xrotation
											JOINT RightHandMiddle3
											{
												OFFSET -0.000000 3.654981 0.000000
												CHANNELS 3 Zrotation Yrotation Xrotation
												JOINT RightHandMiddle4
												{
													OFFSET -0.000000 2.741236 0.000000
													CHANNELS 3 Zrotation Yrotation Xrotation
													End Site
													{
														OFFSET 0.000000 0.000000 0.000000
													}
												}
											}
										}
									}
									JOINT RightHandRing1
									{
										OFFSET 0.086752 8.921708 -2.267442
										CHANNELS 3 Zrotation Yrotation Xrotation
										JOINT RightHandRing2
										{
											OFFSET 0.000000 4.061090 0.000000
											CHANNELS 3 Zrotation Yrotation Xrotation
											JOINT RightHandRing3
											{
												OFFSET -0.000000 3.654981 0.000000
												CHANNELS 3 Zrotation Yrotation Xrotation
												JOINT RightHandRing4
												{
													OFFSET -0.000000 2.741236 0.000000
													CHANNELS 3 Zrotation Yrotation Xrotation
													End Site
													{
														OFFSET 0.000000 0.000000 0.000000
													}
												}
											}
										}
									}
									JOINT RightHandPinky1
									{
										OFFSET -0.173504 7.976997 -4.467199
										CHANNELS 3 Zrotation Yrotation Xrotation
										JOINT RightHandPinky2
										{
											OFFSET -0.000000 3.350399 0.000000
											CHANNELS 3 Zrotation Yrotation Xrotation
											JOINT RightHandPinky3
											{
												OFFSET 0.000000 2.842763 -0.000000
												CHANNELS 3 Zrotation Yrotation Xrotation
												JOINT RightHandPinky4
												{
													OFFSET -0.000000 2.639709 0.000000
													CHANNELS 3 Zrotation Yrotation Xrotation
													End Site
													{
														OFFSET 0.000000 0.000000 0.000000
													}
												}
											}
										}
									}
									JOINT RightForeArmEnd
									{
										OFFSET 0.000000 0.000000 0.000000
										CHANNELS 3 Zrotation Yrotation Xrotation
										End Site
										{
											OFFSET 0.000000 0.000000 0.000000
										}
									}
								}
								JOINT RightArmEnd
								{
									OFFSET 0.000000 0.000000 0.000000
									CHANNELS 3 Zrotation Yrotation Xrotation
									End Site
									{
										OFFSET 0.000000 0.000000 0.000000
									}
								}
							}
						}
					}
					JOINT LeftShoulder
					{
						OFFSET 2.625389 11.175210 -0.000000
						CHANNELS 3 Zrotation Yrotation Xrotation
						JOINT LeftArm
						{
							OFFSET 0.000000 10.813635 0.000000
							CHANNELS 3 Zrotation Yrotation Xrotation
							JOINT LeftForeArm
							{
								OFFSET 0.000000 28.724781 -0.000000
								CHANNELS 3 Zrotation Yrotation Xrotation
								JOINT LeftHand
								{
									OFFSET 0.644384 25.716167 -0.328871
									CHANNELS 3 Zrotation Yrotation Xrotation
									JOINT LeftHandThumb1
									{
										OFFSET 2.867323 3.959563 2.944291
										CHANNELS 3 Zrotation Yrotation Xrotation
										JOINT LeftHandThumb2
										{
											OFFSET -0.000000 3.350399 -0.000000
											CHANNELS 3 Zrotation Yrotation Xrotation
											JOINT LeftHandThumb3
											{
												OFFSET 0.000000 3.756509 0.000000
												CHANNELS 3 Zrotation Yrotation Xrotation
												JOINT LeftHandThumb4
												{
													OFFSET -0.000000 3.100000 -0.000000
													CHANNELS 3 Zrotation Yrotation Xrotation
													End Site
													{
														OFFSET 0.000000 0.000000 0.000000
													}
												}
											}
										}
									}
									JOINT LeftHandIndex1
									{
										OFFSET 0.086752 10.030893 2.345280
										CHANNELS 3 Zrotation Yrotation Xrotation
										JOINT LeftHandIndex2
										{
											OFFSET 0.000000 4.061090 -0.000000
											CHANNELS 3 Zrotation Yrotation Xrotation
											JOINT LeftHandIndex3
											{
												OFFSET 0.000000 3.248873 0.000000
												CHANNELS 3 Zrotation Yrotation Xrotation
												JOINT LeftHandIndex4
												{
													OFFSET -0.000000 2.639709 -0.000000
													CHANNELS 3 Zrotation Yrotation Xrotation
													End Site
													{
														OFFSET 0.000000 0.000000 0.000000
													}
												}
											}
										}
									}
									JOINT LeftHandMiddle1
									{
										OFFSET -0.104102 9.502952 0.006768
										CHANNELS 3 Zrotation Yrotation Xrotation
										JOINT LeftHandMiddle2
										{
											OFFSET 0.000000 4.568727 0.000000
											CHANNELS 3 Zrotation Yrotation Xrotation
											JOINT LeftHandMiddle3
											{
												OFFSET -0.000000 3.654981 -0.000000
												CHANNELS 3 Zrotation Yrotation Xrotation
												JOINT LeftHandMiddle4
												{
													OFFSET 0.000000 2.741236 -0.000000
													CHANNELS 3 Zrotation Yrotation Xrotation
													End Site
													{
														OFFSET 0.000000 0.000000 0.000000
													}
												}
											}
										}
									}
									JOINT LeftHandRing1
									{
										OFFSET -0.086752 8.921708 -2.267442
										CHANNELS 3 Zrotation Yrotation Xrotation
										JOINT LeftHandRing2
										{
											OFFSET 0.000000 4.061090 0.000000
											CHANNELS 3 Zrotation Yrotation Xrotation
											JOINT LeftHandRing3
											{
												OFFSET -0.000000 3.654981 -0.000000
												CHANNELS 3 Zrotation Yrotation Xrotation
												JOINT LeftHandRing4
												{
													OFFSET 0.000000 2.741236 0.000000
													CHANNELS 3 Zrotation Yrotation Xrotation
													End Site
													{
														OFFSET 0.000000 0.000000 0.000000
													}
												}
											}
										}
									}
									JOINT LeftHandPinky1
									{
										OFFSET 0.173504 7.976997 -4.467199
										CHANNELS 3 Zrotation Yrotation Xrotation
										JOINT LeftHandPinky2
										{
											OFFSET 0.000000 3.350399 0.000000
											CHANNELS 3 Zrotation Yrotation Xrotation
											JOINT LeftHandPinky3
											{
												OFFSET -0.000000 2.842763 -0.000000
												CHANNELS 3 Zrotation Yrotation Xrotation
												JOINT LeftHandPinky4
												{
													OFFSET -0.000000 2.639709 0.000000
													CHANNELS 3 Zrotation Yrotation Xrotation
													End Site
													{
														OFFSET 0.000000 0.000000 0.000000
													}
												}
											}
										}
									}
									JOINT LeftForeArmEnd
									{
										OFFSET 0.000000 0.000000 0.000000
										CHANNELS 3 Zrotation Yrotation Xrotation
										End Site
										{
											OFFSET 0.000000 0.000000 0.000000
										}
									}
								}
								JOINT LeftArmEnd
								{
									OFFSET 0.000000 0.000000 0.000000
									CHANNELS 3 Zrotation Yrotation Xrotation
									End Site
									{
										OFFSET 0.000000 0.000000 0.000000
									}
								}
							}
						}
					}
				}
			}
		}
	}
	JOINT RightUpLeg
	{
		OFFSET -11.289943 -0.000000 -0.000000
		CHANNELS 3 Zrotation Yrotation Xrotation
		JOINT RightLeg
		{
			OFFSET 0.000000 -38.200325 -0.000000
			CHANNELS 3 Zrotation Yrotation Xrotation
			JOINT RightFoot
			{
				OFFSET -0.000000 -39.900856 0.000000
				CHANNELS 3 Zrotation Yrotation Xrotation
				JOINT RightToeBase
				{
					OFFSET 0.000000 -0.000000 15.261641
					CHANNELS 3 Zrotation Yrotation Xrotation
					JOINT RightToeBaseEnd
					{
						OFFSET 0.000000 -0.000000 7.370709
						CHANNELS 3 Zrotation Yrotation Xrotation
						End Site
						{
							OFFSET 0.000000 0.000000 0.000000
						}
					}
				}
				JOINT RightLegEnd
				{
					OFFSET 0.000000 0.000000 0.000000
					CHANNELS 3 Zrotation Yrotation Xrotation
					End Site
					{
						OFFSET 0.000000 0.000000 0.000000
					}
				}
			}
			JOINT RightUpLegEnd
			{
				OFFSET 0.000000 0.000000 0.000000
				CHANNELS 3 Zrotation Yrotation Xrotation
				End Site
				{
					OFFSET 0.000000 0.000000 0.000000
				}
			}
		}
	}
	JOINT LeftUpLeg
	{
		OFFSET 11.315661 0.000000 0.000000
		CHANNELS 3 Zrotation Yrotation Xrotation
		JOINT LeftLeg
		{
			OFFSET 0.000000 -38.200325 -0.000000
			CHANNELS 3 Zrotation Yrotation Xrotation
			JOINT LeftFoot
			{
				OFFSET 0.000000 -39.900856 0.000000
				CHANNELS 3 Zrotation Yrotation Xrotation
				JOINT LeftToeBase
				{
					OFFSET -0.000000 0.000000 15.261641
					CHANNELS 3 Zrotation Yrotation Xrotation
					JOINT LeftToeBaseEnd
					{
						OFFSET 0.000000 -0.000000 7.539996
						CHANNELS 3 Zrotation Yrotation Xrotation
						End Site
						{
							OFFSET 0.000000 0.000000 0.000000
						}
					}
				}
				JOINT LeftLegEnd
				{
					OFFSET 0.000000 0.000000 0.000000
					CHANNELS 3 Zrotation Yrotation Xrotation
					End Site
					{
						OFFSET 0.000000 0.000000 0.000000
					}
				}
			}
			JOINT LeftUpLegEnd
			{
				OFFSET 0.000000 0.000000 0.000000
				CHANNELS 3 Zrotation Yrotation Xrotation
				End Site
				{
					OFFSET 0.000000 0.000000 0.000000
				}
			}
		}
	}
}
MOTION
Frames: 5
Frame Time: 0.016667
0.000000 85.843872 0.000000 7.363304 0.954091 -14.440796 -4.803537 1.543781 7.611696 0.144562 0.330886 0.963599 -3.409511 3.862741 12.948986 -2.718548 0.615558 5.746804 -4.530674 -1.646691 7.289641 0.036933 -3.966858 -2.812216 2.312032 1.112559 -19.057188 0.000000 0.000000 0.000000 94.570030 -0.792322 10.394509 60.177753 -33.213970 13.691451 0.302012 10.408143 23.729391 1.702733 19.126228 -1.215023 11.236527 -1.888869 39.607235 -0.000000 -0.000000 -27.360001 -0.000000 -0.000000 -19.000000 0.000000 0.000000 0.000000 13.525225 16.811014 -8.804396 10.822265 -0.691127 -3.273861 10.821608 0.291133 -3.086099 -0.000000 -0.000000 0.000000 13.869543 6.914894 -8.987040 10.415633 -0.890541 -1.269413 10.414263 0.099230 -1.088632 -0.000000 -0.000000 0.000000 17.165956 -8.899786 -8.627102 10.997166 1.837517 1.722875 10.991513 -0.124273 1.341442 -0.000000 -0.000000 0.000000 19.602760 -25.706373 -9.239554 10.114453 3.579195 4.762783 10.094718 -0.358811 4.060862 -0.000000 -0.000000 0.000000 -0.000000 -0.000000 0.000000 -0.000000 0.000000 0.000000 -93.094124 0.767930 13.306390 -45.864304 46.182747 10.873835 -1.476025 -11.108634 38.257919 -8.386282 -14.025480 -14.728990 -11.386313 1.899954 39.541836 0.000000 0.000000 -27.720001 0.000000 0.000000 -19.250000 0.000000 -0.000000 0.000000 -19.256649 16.782728 -9.445192 -11.101970 -0.673631 3.357541 -11.101355 0.307657 3.164992 0.000000 0.000000 0.000000 -16.495266 6.889105 -10.267548 -10.617435 -0.876769 1.293747 -10.616635 0.085360 1.109465 0.000000 0.000000 0.000000 -15.013662 -8.892819 -8.919851 -11.401583 1.821848 -1.785447 -11.395778 -0.138639 -1.390154 -0.000000 0.000000 0.000000 -12.415346 -25.644577 -10.163790 -10.947163 3.507108 -5.151306 -10.926705 -0.420296 -4.392265 -0.000000 0.000000 0.000000 0.000000 -0.000000 -0.000000 0.000000 0.000000 0.000000 -25.248219 -19.126856 -3.156701 -0.620571 -1.011655 31.559401 11.535255 -20.996735 18.262280 -2.952342 0.543449 -17.867565 0.000000 0.000000 -0.000000 -0.000000 0.000000 -0.000000 0.000000 0.000000 -0.000000 -9.825931 10.206703 22.125107 0.003744 0.137149 3.294587 4.704390 11.172411 13.573747 -0.658169 -0.997269 -15.441318 0.000000 0.000000 -0.000000 0.000000 0.000000 -0.000000 0.000000 -0.000000 0.000000 
-0.006155 85.855484 0.008810 7.348110 1.159202 -14.392380 -4.801168 1.537772 7.607380 0.135061 0.331049 0.966487 -3.354860 3.834322 12.954422 -2.685596 0.613866 5.737235 -4.512993 -1.699895 7.285109 0.022884 -4.009297 -2.790991 2.307992 1.107079 -19.016705 0.000000 -0.000000 0.000000 94.606850 -0.800266 10.410063 60.189236 -33.200188 13.680601 0.302142 10.426686 23.696400 1.550416 19.083212 -1.369934 11.236527 -1.888869 39.607235 -0.000000 -0.000000 -27.360001 -0.000000 -0.000000 -19.000000 0.000000 0.000000 0.000000 13.538181 16.810722 -8.811913 10.832495 -0.691673 -3.276906 10.831833 0.290593 -3.088964 -0.000000 -0.000000 0.000000 13.857196 6.914927 -8.985760 10.406929 -0.890620 -1.268364 10.405561 0.099048 -1.087732 -0.000000 -0.000000 0.000000 17.082016 -8.900045 -8.616918 10.939931 1.839065 1.714015 10.934291 -0.123392 1.334543 -0.000000 -0.000000 0.000000 19.449831 -25.707457 -9.222557 10.020123 3.587003 4.718719 10.000482 -0.352152 4.023278 -0.000000 -0.000000 0.000000 -0.000000 0.000000 0.000000 -0.000000 -0.000000 -0.000000 -93.043327 0.757922 13.341666 -45.869556 46.309166 11.003676 -1.451748 -10.958820 38.273399 -8.847556 -14.001073 -14.682465 -11.536112 1.910868 39.476410 -0.000000 0.000000 -28.080000 0.000000 -0.000000 -19.500000 0.000000 0.000000 -0.000000 -19.719965 16.772446 -9.662874 -11.370989 -0.657660 3.437937 -11.370412 0.322713 3.240782 0.000000 0.000000 0.000000 -16.912170 6.885130 -10.444895 -10.892883 -0.873496 1.326913 -10.892087 0.087741 1.137900 -0.000000 0.000000 0.000000 -15.417874 -8.889189 -9.073618 -11.698933 1.812465 -1.831386 -11.693035 -0.146017 -1.425926 -0.000000 0.000000 0.000000 -12.796864 -25.634590 -10.306919 -11.234312 3.480932 -5.285089 -11.213655 -0.442623 -4.506387 -0.000000 0.000000 0.000000 0.000000 -0.000000 -0.000000 -0.000000 0.000000 0.000000 -25.249474 -19.084099 -3.063544 -0.619841 -1.010975 31.501066 11.622750 -21.233873 18.213438 -2.962382 0.545933 -17.857027 0.000000 0.000000 -0.000000 -0.000000 0.000000 -0.000000 0.000000 -0.000000 -0.000000 -9.812104 10.110350 22.085983 0.003381 0.136249 3.308117 4.713585 11.058525 13.594217 -0.662499 -0.998278 -15.451875 0.000000 -0.000000 -0.000000 0.000000 -0.000000 -0.000000 0.000000 0.000000 0.000000 
-0.010289 85.866089 0.013406 7.336078 1.348591 -14.334287 -4.794733 1.530269 7.597990 0.130950 0.332555 0.968574 -3.310272 3.809736 12.952312 -2.651974 0.615556 5.722311 -4.488949 -1.757651 7.285784 0.020782 -4.047332 -2.776278 2.309503 1.100944 -18.976171 0.000000 0.000000 0.000000 94.619743 -0.804360 10.432148 60.250149 -33.193752 13.640105 0.304224 10.412014 23.717875 1.324720 18.688955 -1.529350 11.236527 -1.888869 39.607235 -0.000000 -0.000000 -27.360001 -0.000000 -0.000000 -19.000000 0.000000 0.000000 0.000000 13.489974 16.812395 -8.772186 10.792364 -0.693553 -3.264903 10.791699 0.288830 -3.077650 -0.000000 -0.000000 0.000000 13.799552 6.915543 -8.951490 10.363921 -0.891054 -1.263180 10.362563 0.098489 -1.083286 -0.000000 -0.000000 0.000000 17.002306 -8.900630 -8.593296 10.887085 1.840658 1.705834 10.881454 -0.122525 1.328171 -0.000000 -0.000000 0.000000 19.356310 -25.708458 -9.207438 9.963761 3.591633 4.692388 9.944179 -0.348203 4.000819 -0.000000 -0.000000 0.000000 -0.000000 0.000000 0.000000 -0.000000 0.000000 0.000000 -92.989380 0.746962 13.374647 -45.814194 46.549915 11.176000 -1.409942 -10.957592 38.362030 -9.051065 -14.059176 -14.441105 -11.554838 1.912220 39.468227 -0.000000 0.000000 -28.125000 0.000000 -0.000000 -19.531250 0.000000 0.000000 0.000000 -20.054466 16.764217 -9.835415 -11.562238 -0.646076 3.495049 -11.561690 0.333634 3.294624 0.000000 0.000000 0.000000 -17.181242 6.882894 -10.539775 -11.072299 -0.871322 1.348498 -11.071512 0.089030 1.156406 0.000000 0.000000 0.000000 -15.625786 -8.888914 -9.096012 -11.845788 1.807742 -1.854057 -11.839840 -0.150023 -1.443579 -0.000000 0.000000 0.000000 -12.969212 -25.638844 -10.250920 -11.330211 3.472040 -5.329744 -11.309493 -0.450208 -4.544481 -0.000000 0.000000 0.000000 0.000000 -0.000000 -0.000000 0.000000 0.000000 0.000000 -25.246241 -19.055506 -2.992395 -0.618435 -1.010584 31.446844 11.700207 -21.447117 18.170256 -2.970930 0.548044 -17.850731 0.000000 0.000000 -0.000000 0.000000 0.000000 -0.000000 0.000000 -0.000000 -0.000000 -9.808625 10.017559 22.035290 0.003060 0.135359 3.317398 4.724788 10.955351 13.618934 -0.666242 -0.999061 -15.467720 0.000000 -0.000000 -0.000000 0.000000 -0.000000 -0.000000 0.000000 -0.000000 -0.000000 
-0.014305 85.877037 0.013992 7.321493 1.510275 -14.273228 -4.784032 1.519533 7.583793 0.129726 0.334840 0.970446 -3.289508 3.795359 12.952766 -2.616973 0.622922 5.697021 -4.450249 -1.818100 7.285058 0.020030 -4.061161 -2.774960 2.323555 1.095011 -18.934992 0.000000 0.000000 0.000000 94.624115 -0.806390 10.448219 60.332058 -33.190018 13.594753 0.310397 10.355662 23.789545 1.057146 18.118036 -1.641439 11.236527 -1.888869 39.607235 -0.000000 -0.000000 -27.360001 -0.000000 -0.000000 -19.000000 0.000000 0.000000 0.000000 13.421503 16.814337 -8.727277 10.737583 -0.695783 -3.248521 10.736917 0.286748 -3.062212 0.000000 -0.000000 0.000000 13.722368 6.916160 -8.920308 10.307567 -0.891630 -1.256386 10.306220 0.097757 -1.077460 0.000000 -0.000000 0.000000 16.910683 -8.900735 -8.587074 10.824088 1.842448 1.696079 10.818470 -0.121489 1.320575 -0.000000 -0.000000 0.000000 19.266518 -25.707396 -9.223517 9.901042 3.596755 4.663081 9.881524 -0.343835 3.975822 -0.000000 -0.000000 0.000000 -0.000000 0.000000 0.000000 -0.000000 -0.000000 0.000000 -92.948685 0.738012 13.387813 -45.692989 46.841404 11.390594 -1.352856 -11.028687 38.492371 -9.020113 -14.044742 -14.175370 -11.536112 1.910868 39.476410 -0.000000 0.000000 -28.080000 0.000000 -0.000000 -19.500000 -0.000000 -0.000000 0.000000 -20.254644 16.762981 -9.861981 -11.691543 -0.638135 3.533644 -11.691017 0.341120 3.331007 0.000000 0.000000 -0.000000 -17.339777 6.883730 -10.508532 -11.185280 -0.869911 1.362083 -11.184506 0.089542 1.168052 0.000000 0.000000 -0.000000 -15.729456 -8.890836 -9.005783 -11.908126 1.805720 -1.863677 -11.902141 -0.152415 -1.451067 0.000000 0.000000 -0.000000 -13.044266 -25.650026 -10.086973 -11.332865 3.471793 -5.330980 -11.312145 -0.450419 -4.545535 0.000000 0.000000 -0.000000 0.000000 -0.000000 -0.000000 0.000000 0.000000 0.000000 -25.226908 -18.999043 -2.938496 -0.616961 -1.010312 31.382660 11.778270 -21.668226 18.131199 -2.980347 0.550773 -17.846535 0.000000 -0.000000 -0.000000 -0.000000 -0.000000 -0.000000 0.000000 0.000000 -0.000000 -9.802053 9.939146 21.974245 0.002778 0.134457 3.332742 4.733889 10.861679 13.641936 -0.669981 -0.999832 -15.488714 0.000000 0.000000 -0.000000 0.000000 0.000000 0.000000 0.000000 0.000000 0.000000 
-0.016369 85.885445 0.013531 7.307066 1.651542 -14.228230 -4.775024 1.506578 7.579329 0.129672 0.337424 0.971318 -3.266938 3.791510 12.962182 -2.584371 0.635683 5.677716 -4.408494 -1.874324 7.260828 0.020302 -4.073388 -2.786562 2.345092 1.090738 -18.888773 0.000000 0.000000 0.000000 94.628136 -0.807029 10.448271 60.400185 -33.234322 13.545665 0.319225 10.323768 23.939047 0.774750 17.483135 -1.736322 11.236527 -1.888869 39.607235 -0.000000 -0.000000 -27.360001 -0.000000 -0.000000 -19.000000 -0.000000 -0.000000 -0.000000 13.346776 16.813520 -8.747047 10.691182 -0.697750 -3.234641 10.690513 0.284909 -3.049130 0.000000 0.000000 -0.000000 13.638318 6.915502 -8.956826 10.252108 -0.892203 -1.249699 10.250772 0.097011 -1.071725 0.000000 0.000000 -0.000000 16.810539 -8.899038 -8.658384 10.746830 1.844436 1.684114 10.741234 -0.120249 1.311257 0.000000 0.000000 0.000000 19.175585 -25.700600 -9.329084 9.812422 3.603936 4.621664 9.792998 -0.337709 3.940497 0.000000 -0.000000 0.000000 -0.000000 0.000000 -0.000000 -0.000000 0.000000 -0.000000 -92.920792 0.731861 13.396728 -45.486607 47.213764 11.682105 -1.288455 -11.218660 38.632832 -8.825196 -14.002266 -13.884171 -11.536112 1.910868 39.476410 -0.000000 0.000000 -28.080000 0.000000 -0.000000 -19.500000 -0.000000 0.000000 -0.000000 -20.300665 16.775221 -9.592138 -11.774744 -0.632979 3.558469 -11.774233 0.345980 3.354410 -0.000000 -0.000000 -0.000000 -17.413450 6.888431 -10.275398 -11.256032 -0.868899 1.370590 -11.255277 0.089585 1.175343 0.000000 -0.000000 -0.000000 -15.794609 -8.895946 -8.799691 -11.931257 1.804967 -1.867246 -11.925230 -0.154523 -1.453845 0.000000 -0.000000 -0.000000 -13.095195 -25.664288 -9.879527 -11.307686 3.474135 -5.319257 -11.286983 -0.448421 -4.535534 0.000000 0.000000 -0.000000 0.000000 -0.000000 -0.000000 -0.000000 -0.000000 0.000000 -25.209200 -18.940552 -2.882744 -0.615478 -1.009986 31.323687 11.847118 -21.866819 18.093618 -2.987831 0.551767 -17.844414 0.000000 -0.000000 -0.000000 -0.000000 0.000000 -0.000000 0.000000 -0.000000 -0.000000 -9.797842 9.867441 21.930506 0.002534 0.133518 3.342504 4.743515 10.782800 13.657223 -0.674112 -1.000732 -15.503705 0.000000 -0.000000 -0.000000 0.000000 -0.000000 -0.000000 0.000000 -0.000000 -0.000000 
